<svg xmlns="http://www.w3.org/2000/svg" width="100" height="40" viewBox="0 0 100 40">
    <g fill="none" fill-rule="evenodd">
        <g>
            <path fill="#000" d="M81.845 10.862c3.768 0 7.812 1.387 10.697 3.388l-3.42 4.399c-2.226-1.272-4.641-2.08-6.795-2.202-1.763-.101-3.06.241-3.628 1.004-.43.576-.385 1.39.214 1.974.583.57 1.538.92 2.788 1.317 2.452.778 5.708 1.574 7.638 2.764 1.576.971 2.934 2.244 3.445 4.271.644 2.554-.142 5.085-2.502 6.99-2.265 1.828-5.006 2.29-7.483 2.29-3.635 0-7.68-.945-12.215-3.828l3.692-4.747c2.167 1.383 4.37 2.206 6.494 2.594 2.177.398 3.845.236 4.796-.349.804-.494 1.042-1.438.5-2.18-.605-.828-2.26-1.311-3.376-1.654-3.355-1.033-7.474-1.975-9.594-4.89-1.91-2.627-1.316-5.938.63-8.067 1.886-2.064 4.797-3.074 8.119-3.074zm-30.178.638v13.892c0 1.958.456 3.042 1.394 4.03.918.968 2.22 1.566 3.693 1.566 1.472 0 2.774-.598 3.693-1.566.937-.988 1.394-2.072 1.394-4.03V11.5H68.2v13.671c0 4.389-1.36 6.981-3.459 8.914-2.21 2.037-5.064 2.973-7.987 2.973s-5.777-.936-7.987-2.973c-2.098-1.933-3.46-4.525-3.46-8.914v-13.67h6.36zm-44.513 0V36.42H.794V11.5h6.36zM3.962 0C6.198 0 7.95 1.765 7.95 4.017c0 2.226-1.751 3.97-3.987 3.97C1.703 7.986 0 6.28 0 4.016 0 1.765 1.74 0 3.962 0z" transform="translate(3.5 1.208)"/>
            <path fill="#FF7B30" d="M25.04 17.107c-5.534 0-7.188 4.35-7.48 5.288-.88 2.835-.06 5.346 1.004 6.75.773 1.02 2.492 2.667 5.305 2.229 3.107-.483 5.08-3.796 5.621-6.878.355-2.023.496-4.07.552-6.412-1.577-.593-3.314-.977-5.002-.977m-2.105 20.59c-3.658 0-6.986-1.683-9.331-4.78-2.557-3.375-3.32-8.123-1.993-12.39 1.714-5.511 7.216-10.593 15.651-9.521.89.113 1.778.284 2.653.51V.64h6.359v13.62c2.566 1.493 4.897 3.19 6.967 5.08l-3.827 4.922c-.93-.875-2.273-1.958-3.336-2.725-.074 1.301-.25 2.757-.477 4.052-.55 3.13-1.904 6.164-4.13 8.451-2.31 2.373-5.235 3.657-8.536 3.657" transform="translate(3.5 1.208)"/>
        </g>
    </g>
</svg>
